<svg width="18" height="17" viewBox="0 0 18 17" fill="none" xmlns="http://www.w3.org/2000/svg">
<ellipse cx="4.86917" cy="8.64531" rx="2.78025" ry="3.19263" transform="rotate(25.2825 4.86917 8.64531)" fill="#7189FF"/>
<ellipse cx="4.86917" cy="8.64531" rx="2.78025" ry="3.19263" transform="rotate(25.2825 4.86917 8.64531)" fill="#A0DDFF"/>
<ellipse cx="8.08328" cy="5.30443" rx="2.78025" ry="3.19263" transform="rotate(25.2825 8.08328 5.30443)" fill="#7189FF"/>
<ellipse cx="8.08328" cy="5.30443" rx="2.78025" ry="3.19263" transform="rotate(25.2825 8.08328 5.30443)" fill="#A0DDFF"/>
<ellipse cx="12.4309" cy="6.96929" rx="2.78025" ry="3.19263" transform="rotate(25.2825 12.4309 6.96929)" fill="#7189FF"/>
<ellipse cx="12.4309" cy="6.96929" rx="2.78025" ry="3.19263" transform="rotate(25.2825 12.4309 6.96929)" fill="#A0DDFF"/>
<ellipse cx="11.1371" cy="11.0227" rx="2.78025" ry="3.19263" transform="rotate(25.2825 11.1371 11.0227)" fill="#7189FF"/>
<ellipse cx="11.1371" cy="11.0227" rx="2.78025" ry="3.19263" transform="rotate(25.2825 11.1371 11.0227)" fill="#A0DDFF"/>
<ellipse cx="6.56192" cy="10.6757" rx="2.78025" ry="3.19263" transform="rotate(25.2825 6.56192 10.6757)" fill="#7189FF"/>
<ellipse cx="6.56192" cy="10.6757" rx="2.78025" ry="3.19263" transform="rotate(25.2825 6.56192 10.6757)" fill="#A0DDFF"/>
<ellipse cx="8.8143" cy="8.17632" rx="2.78025" ry="3.19263" transform="rotate(25.2825 8.8143 8.17632)" fill="#7189FF"/>
<ellipse cx="8.8143" cy="8.17632" rx="2.78025" ry="3.19263" transform="rotate(25.2825 8.8143 8.17632)" fill="#A0DDFF"/>
<circle cx="10.0969" cy="7.5749" r="0.440904" transform="rotate(52.4447 10.0969 7.5749)" fill="#7189FF"/>
<circle cx="10.0969" cy="7.5749" r="0.440904" transform="rotate(52.4447 10.0969 7.5749)" fill="#A0DDFF"/>
<circle cx="10.0969" cy="7.5749" r="0.440904" transform="rotate(52.4447 10.0969 7.5749)" stroke="black" stroke-width="0.3"/>
<rect x="9.1571" y="7.40302" width="1.85246" height="0.772955" transform="rotate(7.4447 9.1571 7.40302)" fill="#7189FF"/>
<rect x="9.1571" y="7.40302" width="1.85246" height="0.772955" transform="rotate(7.4447 9.1571 7.40302)" fill="#A0DDFF"/>
<line x1="11.0003" y1="7.06954" x2="10.6255" y2="7.35768" stroke="black" stroke-width="0.3"/>
<line x1="9.32741" y1="6.92498" x2="9.70272" y2="7.21239" stroke="black" stroke-width="0.3"/>
<circle cx="6.85268" cy="8.07754" r="0.440904" transform="rotate(15.8154 6.85268 8.07754)" fill="#7189FF"/>
<circle cx="6.85268" cy="8.07754" r="0.440904" transform="rotate(15.8154 6.85268 8.07754)" fill="#A0DDFF"/>
<circle cx="6.85268" cy="8.07754" r="0.440904" transform="rotate(15.8154 6.85268 8.07754)" stroke="black" stroke-width="0.3"/>
<rect x="5.99591" y="8.50024" width="1.85246" height="0.772955" transform="rotate(-29.1846 5.99591 8.50024)" fill="#7189FF"/>
<rect x="5.99591" y="8.50024" width="1.85246" height="0.772955" transform="rotate(-29.1846 5.99591 8.50024)" fill="#A0DDFF"/>
<line x1="7.27616" y1="7.13304" x2="7.14732" y2="7.58787" stroke="black" stroke-width="0.3"/>
<line x1="5.84735" y1="8.01505" x2="6.32003" y2="8.02178" stroke="black" stroke-width="0.3"/>
<ellipse cx="6.71553" cy="8.91678" rx="0.345857" ry="0.345857" transform="rotate(0.815417 6.71553 8.91678)" fill="#7189FF"/>
<ellipse cx="6.71553" cy="8.91678" rx="0.345857" ry="0.345857" transform="rotate(0.815417 6.71553 8.91678)" fill="#FEC9F1"/>
<ellipse cx="10.5286" cy="8.33695" rx="0.345857" ry="0.345857" transform="rotate(0.815417 10.5286 8.33695)" fill="#7189FF"/>
<ellipse cx="10.5286" cy="8.33695" rx="0.345857" ry="0.345857" transform="rotate(0.815417 10.5286 8.33695)" fill="#FEC9F1"/>
<path d="M7.89954 9.40125C8.01313 9.80722 9.37434 9.86288 9.33557 8.97424" stroke="black" stroke-width="0.3"/>
</svg>
